<?xml version="1.0" standalone="no"?>
<!DOCTYPE svg PUBLIC "-//W3C//DTD SVG 20010904//EN"
 "http://www.w3.org/TR/2001/REC-SVG-20010904/DTD/svg10.dtd">
<svg version="1.0" xmlns="http://www.w3.org/2000/svg"
 width="512.000000pt" height="512.000000pt" viewBox="0 0 512.000000 512.000000"
 preserveAspectRatio="xMidYMid meet">
<metadata>
Created by potrace 1.14, written by Peter Selinger 2001-2017
</metadata>
<g transform="translate(0.000000,512.000000) scale(0.100000,-0.100000)"
fill="#000000" stroke="none">
<path d="M2710 5112 c0 -7 -3 -11 -8 -9 -12 4 -122 -45 -122 -55 0 -5 -4 -7
-8 -4 -4 2 -41 -18 -81 -45 -41 -27 -76 -49 -79 -49 -9 0 -144 -122 -197 -178
-114 -121 -131 -141 -198 -227 -136 -176 -266 -380 -390 -615 -27 -52 -53
-100 -58 -105 -4 -6 -61 -118 -127 -250 -231 -463 -369 -819 -451 -1165 -31
-131 -34 -149 -56 -320 -15 -122 -13 -485 4 -570 6 -30 13 -71 16 -90 41 -247
169 -530 345 -765 71 -95 242 -275 260 -275 6 0 8 -4 5 -10 -3 -5 0 -10 8 -10
8 0 26 -11 41 -25 14 -13 26 -22 26 -19 0 3 6 -1 14 -8 8 -7 11 -17 8 -22 -3
-5 0 -6 7 -1 8 4 18 -1 28 -14 8 -12 20 -20 26 -19 7 1 27 -12 46 -30 28 -27
36 -30 49 -20 13 11 15 10 9 -4 -4 -13 -2 -15 10 -11 10 4 14 2 9 -5 -3 -6 -2
-13 3 -16 5 -4 13 -1 17 5 5 8 3 9 -6 4 -8 -5 -11 -4 -7 2 8 12 96 -26 97 -41
0 -4 -12 -1 -26 9 -14 9 -28 14 -31 12 -3 -3 9 -13 26 -22 17 -8 31 -13 31 -9
0 4 7 0 16 -7 9 -7 26 -14 37 -16 17 -2 19 -1 7 6 -8 5 -18 7 -24 4 -5 -3 -6
-1 -3 5 15 23 53 -2 48 -31 -1 -5 3 -6 8 -3 5 4 12 2 16 -4 4 -6 11 -8 16 -5
5 4 9 1 9 -6 0 -8 5 -6 13 4 16 23 74 13 82 -14 7 -20 30 -25 40 -9 3 5 0 7
-8 4 -8 -3 -18 -1 -21 5 -5 8 44 9 64 1 3 -1 13 -2 23 -1 9 1 17 -2 17 -8 0
-7 8 -7 25 -1 20 8 27 6 32 -6 8 -20 -3 -29 -20 -16 -8 7 -17 9 -20 5 -4 -3
-13 0 -21 6 -12 10 -14 9 -12 -6 2 -14 12 -18 44 -18 23 0 42 -4 42 -10 0 -5
5 -3 10 5 5 8 10 20 10 25 0 6 -5 3 -10 -5 -8 -13 -10 -12 -10 3 0 9 7 17 15
17 14 0 19 -11 16 -37 -1 -7 2 -13 8 -13 5 0 8 11 7 25 -3 23 -1 24 50 22 29
-2 51 -1 49 2 -2 4 12 6 31 6 19 0 34 -3 34 -6 0 -9 -27 -19 -42 -15 -7 1 -10
1 -5 -1 4 -3 4 -9 1 -14 -3 -6 -11 -5 -20 2 -11 9 -14 9 -14 0 0 -7 -5 -9 -11
-5 -8 5 -8 9 1 14 6 4 -2 7 -19 8 -27 1 -50 -22 -36 -36 3 -3 5 0 5 7 0 7 5 9
12 5 7 -4 8 -3 4 4 -4 7 -2 12 4 12 6 0 13 -7 16 -15 4 -10 13 -13 26 -9 16 5
19 3 13 -7 -5 -8 1 -6 13 4 12 11 26 16 33 11 7 -4 10 -3 6 3 -4 6 0 14 9 17
11 4 15 2 11 -7 -3 -7 3 -18 13 -25 17 -10 17 -9 3 19 -17 34 -17 34 17 43 14
3 19 3 12 0 -6 -3 -9 -10 -6 -15 3 -6 11 -6 20 2 7 6 11 16 7 23 -4 6 1 5 10
-3 15 -12 17 -11 18 5 0 11 3 14 6 6 6 -16 -16 -44 -30 -35 -6 3 -7 1 -3 -5 4
-7 5 -12 2 -12 -2 0 -11 -3 -20 -6 -11 -4 -16 -1 -16 10 0 9 -5 16 -10 16 -13
0 2 -31 24 -49 11 -9 16 -9 22 0 4 8 3 9 -4 5 -19 -11 -14 5 6 20 21 17 40 18
24 2 -7 -7 -12 -17 -12 -23 1 -11 17 14 20 30 1 6 6 15 12 22 5 7 7 16 4 22
-3 5 0 11 7 14 10 4 13 -2 9 -19 -2 -13 -9 -24 -14 -24 -5 0 -6 -5 -3 -10 4
-6 2 -16 -3 -23 -8 -9 -3 -12 18 -12 16 -1 26 3 24 7 -3 5 -10 6 -15 3 -5 -4
-9 3 -9 14 0 12 5 21 11 21 5 0 7 -5 3 -12 -4 -6 -3 -8 4 -4 6 3 13 -2 17 -12
5 -18 7 -17 34 7 16 14 27 28 25 30 -2 3 -15 -6 -29 -19 -14 -13 -25 -18 -25
-12 0 7 13 20 30 31 16 10 27 21 23 24 -3 4 -13 1 -22 -6 -14 -11 -14 -10 -2
6 13 16 12 17 -17 12 -18 -3 -32 -1 -32 4 0 6 9 8 20 6 11 -2 20 0 20 4 0 5
12 16 26 26 15 9 24 13 20 7 -3 -5 1 -13 10 -16 11 -4 15 -2 11 8 -3 8 0 19 7
25 10 9 12 4 10 -22 -1 -17 -5 -42 -8 -54 -4 -21 -1 -23 32 -24 20 -1 43 -1
51 0 8 2 10 -2 5 -11 -6 -10 -5 -10 9 0 9 8 21 11 27 7 14 -9 40 13 34 29 -2
6 -14 12 -24 13 -11 1 -18 -2 -15 -6 2 -5 -3 -15 -12 -22 -12 -10 -14 -10 -9
-1 4 6 3 12 -3 12 -5 0 -13 -5 -16 -10 -4 -6 -12 -7 -18 -3 -7 4 -18 8 -24 8
-7 0 -13 3 -13 8 0 4 0 12 0 18 0 5 5 7 10 4 6 -3 10 -1 10 4 0 6 -4 11 -10
11 -5 0 -10 5 -10 11 0 8 4 8 14 -1 12 -9 15 -8 13 9 -1 13 -6 20 -14 17 -7
-3 -13 -1 -13 4 0 6 6 10 13 10 8 0 7 4 -3 11 -13 9 -13 10 2 5 10 -3 18 1 21
12 4 16 5 15 6 0 0 -10 6 -18 12 -18 5 0 8 4 5 9 -3 5 14 8 39 7 25 -1 45 2
45 6 0 4 5 8 10 8 6 0 4 -10 -4 -23 -9 -13 -12 -28 -7 -35 5 -8 7 -27 5 -43
-2 -16 1 -29 7 -29 6 0 7 -6 3 -12 -5 -10 -4 -10 6 -1 7 6 18 10 24 9 6 -2 8
-1 3 1 -4 3 -4 9 -1 14 4 6 11 6 19 -1 9 -8 15 -8 20 0 3 6 10 8 15 5 5 -3 7
4 5 16 -3 13 0 28 6 36 7 8 8 13 1 13 -17 0 -33 -27 -26 -46 5 -16 4 -16 -5
-4 -9 13 -11 13 -11 0 0 -13 -1 -13 -10 0 -6 9 -10 11 -10 3 0 -7 -7 -10 -15
-7 -24 10 -17 21 11 18 16 -1 24 2 21 9 -2 7 -13 11 -24 9 -27 -4 -37 24 -18
51 15 21 15 21 11 -11 -2 -21 0 -31 8 -29 6 2 10 12 10 21 -2 12 1 14 11 6 9
-8 13 -4 13 15 -1 20 -3 23 -14 14 -23 -19 -16 -1 11 25 14 14 27 20 31 15 4
-6 13 -4 25 6 17 16 20 16 45 -4 15 -12 21 -21 14 -21 -7 0 -1 -11 14 -25 l27
-25 -31 4 c-19 2 -39 -4 -55 -16 -23 -18 -36 -46 -16 -33 5 3 12 1 15 -4 4 -5
1 -13 -5 -17 -7 -4 -9 -3 -6 3 3 5 0 10 -7 10 -8 0 -12 -6 -9 -14 6 -16 19
-17 28 -3 4 6 11 7 17 4 6 -4 5 3 -2 16 -15 28 -7 35 40 36 36 0 38 -1 29 -20
-9 -18 -8 -19 3 -5 7 9 21 15 31 13 10 -1 23 6 30 17 6 10 15 19 20 19 4 0 5
-5 1 -12 -5 -7 -3 -8 5 -3 18 10 -2 27 -22 19 -9 -3 -14 -11 -10 -17 3 -5 1
-7 -5 -3 -6 3 -14 1 -18 -5 -4 -8 -9 -7 -15 2 -14 22 -11 26 25 47 23 13 34
27 32 39 -2 10 -1 12 1 5 3 -7 9 -10 14 -7 5 4 9 2 9 -2 0 -5 -18 -20 -40 -33
-22 -14 -40 -28 -40 -32 0 -12 8 -10 35 8 18 12 28 13 44 4 16 -8 28 -7 50 4
36 19 45 41 25 61 -9 8 -11 15 -5 15 5 0 14 -8 20 -17 5 -10 13 -15 17 -10 4
4 -1 16 -10 26 -18 19 -14 47 5 36 5 -4 9 -1 9 4 0 6 5 11 12 11 9 0 9 -3 1
-11 -9 -9 -8 -16 3 -27 16 -16 68 -26 59 -12 -3 5 5 12 17 15 13 4 33 17 46
28 12 11 22 17 22 12 0 -5 9 1 21 14 14 14 19 30 15 44 -5 20 -4 20 8 4 19
-25 29 -21 15 5 -10 20 -10 21 2 11 11 -9 18 -8 32 1 19 15 24 31 5 20 -7 -4
-8 -3 -4 4 4 6 12 9 19 6 17 -6 68 48 70 74 0 11 5 18 9 16 5 -3 5 -11 2 -17
-13 -22 41 37 78 86 21 28 35 54 31 60 -3 6 -1 7 5 3 7 -4 19 9 31 33 12 22
25 43 31 46 6 4 8 11 5 16 -4 5 -2 9 3 9 8 0 32 42 32 57 0 3 -8 -1 -17 -8
-16 -13 -17 -12 -5 3 8 10 19 16 25 15 7 -1 11 6 11 15 -1 10 2 16 6 13 12 -7
23 32 14 46 -4 8 -3 9 4 5 7 -4 12 -6 12 -4 0 2 11 30 24 63 18 44 22 63 14
72 -8 10 -7 12 6 7 9 -4 16 -3 15 2 -1 5 3 22 9 37 7 16 13 44 15 62 1 18 5
31 8 29 8 -5 19 46 22 98 1 20 5 34 8 33 5 -4 22 91 35 195 12 98 12 325 1
339 -8 10 -9 13 -1 8 12 -7 -12 143 -24 153 -4 3 -8 14 -10 25 -5 32 -24 75
-33 75 -5 0 -8 3 -8 8 4 21 -2 43 -10 38 -5 -3 -8 2 -7 12 0 9 -5 16 -12 14
-8 -1 -11 2 -8 7 5 8 -19 66 -34 81 -14 14 -50 70 -50 78 0 5 -9 17 -20 27
-11 10 -20 24 -20 32 0 7 -4 13 -10 13 -5 0 -10 6 -10 13 0 7 -9 23 -19 34
-11 12 -17 24 -14 27 4 3 -1 6 -11 6 -11 0 -16 7 -14 17 2 11 -2 17 -10 15 -8
-1 -11 2 -7 8 7 11 -60 120 -75 120 -5 0 -9 6 -8 13 2 6 -2 11 -7 10 -6 -1
-11 7 -12 17 -1 17 -17 41 -50 75 -7 8 -13 18 -13 24 0 5 -6 14 -14 18 -8 4
-14 10 -14 13 3 11 -74 110 -81 105 -4 -2 -8 2 -8 9 0 15 -44 76 -55 76 -4 0
-8 6 -8 14 0 8 -3 16 -8 18 -4 2 -25 25 -47 53 -72 89 -80 99 -102 122 -13 13
-23 28 -23 33 0 4 -4 10 -8 12 -5 1 -26 28 -47 58 -21 30 -57 78 -80 105 -87
107 -220 295 -208 295 3 0 -1 8 -9 18 -27 29 -85 154 -116 248 -46 134 -110
448 -157 759 -8 52 -16 166 -19 258 -2 48 -6 90 -10 94 -3 3 -6 1 -6 -5z m700
-1932 c0 -5 -5 -10 -11 -10 -5 0 -7 5 -4 10 3 6 8 10 11 10 2 0 4 -4 4 -10z
m50 -56 c0 -8 -19 -13 -24 -6 -3 5 1 9 9 9 8 0 15 -2 15 -3z m-75 -23 c-9 -8
-36 -10 -30 -2 2 4 11 8 20 8 8 0 13 -3 10 -6z m125 -35 c0 -3 -4 -8 -10 -11
-5 -3 -10 -1 -10 4 0 6 5 11 10 11 6 0 10 -2 10 -4z m40 -86 c0 -5 -5 -10 -11
-10 -5 0 -7 5 -4 10 3 6 8 10 11 10 2 0 4 -4 4 -10z m84 -58 c3 -5 -1 -9 -9
-9 -8 0 -12 4 -9 9 3 4 7 8 9 8 2 0 6 -4 9 -8z m141 -222 c3 -6 -1 -7 -9 -4
-18 7 -21 14 -7 14 6 0 13 -4 16 -10z m-208 -415 c0 -8 -4 -12 -9 -9 -5 3 -6
10 -3 15 9 13 12 11 12 -6z m636 -840 c-3 -9 -8 -14 -10 -11 -3 3 -2 9 2 15 9
16 15 13 8 -4z m-42 -18 c-10 -9 -11 -8 -5 6 3 10 9 15 12 12 3 -3 0 -11 -7
-18z m15 -29 c3 -4 -1 -5 -10 -4 -8 1 -18 5 -22 8 -3 4 1 5 10 4 8 -1 18 -5
22 -8z m-152 -84 c3 -8 2 -12 -4 -9 -6 3 -10 10 -10 16 0 14 7 11 14 -7z m141
-2 c-3 -3 -11 0 -18 7 -9 10 -8 11 6 5 10 -3 15 -9 12 -12z m-141 -30 c3 -5
-1 -9 -9 -9 -8 0 -12 4 -9 9 3 4 7 8 9 8 2 0 6 -4 9 -8z m-148 -44 c3 -4 -1
-5 -10 -4 -8 1 -18 5 -22 8 -3 4 1 5 10 4 8 -1 18 -5 22 -8z m-193 -13 c-3 -9
-8 -14 -10 -11 -3 3 -2 9 2 15 9 16 15 13 8 -4z m207 -30 c-5 -7 -9 -14 -7
-16 1 -2 0 -3 -2 -1 -11 7 -7 29 5 29 9 0 11 -4 4 -12z m-76 -13 c3 -5 -1 -9
-9 -9 -8 0 -15 4 -15 9 0 4 4 8 9 8 6 0 12 -4 15 -8z m239 -4 c-6 -7 -9 -21
-8 -30 2 -10 0 -20 -4 -23 -4 -2 -7 6 -7 18 2 23 13 47 23 47 3 0 1 -6 -4 -12z
m77 4 c0 -5 -7 -9 -15 -9 -8 0 -12 4 -9 9 3 4 9 8 15 8 5 0 9 -4 9 -8z m-243
-35 c0 -8 -6 -14 -14 -14 -9 0 -10 4 -2 14 6 7 12 13 14 13 1 0 2 -6 2 -13z
m-236 -10 c-6 -8 -9 -16 -6 -19 3 -3 -3 -11 -12 -19 -16 -13 -17 -12 -4 4 7 9
10 17 6 17 -4 0 -2 7 5 15 7 8 15 15 17 15 3 0 0 -6 -6 -13z m36 -2 c0 -8 -4
-12 -9 -9 -5 3 -6 10 -3 15 9 13 12 11 12 -6z m133 11 c0 -2 -8 -10 -17 -17
-16 -13 -17 -12 -4 4 13 16 21 21 21 13z m-215 -25 c-9 -8 -36 -10 -30 -2 2 4
11 8 20 8 8 0 13 -3 10 -6z m416 -8 c13 -16 12 -17 -3 -5 -9 8 -23 10 -29 6
-8 -4 -9 -3 -5 4 10 17 21 15 37 -5z m86 2 c0 -8 -4 -12 -9 -9 -4 3 -8 9 -8
15 0 5 4 9 8 9 5 0 9 -7 9 -15z m-572 -15 c-3 -5 -12 -10 -18 -10 -7 0 -6 4 3
10 19 12 23 12 15 0z m353 -9 c-7 -9 -13 -18 -15 -20 -1 -2 -1 5 0 16 0 11 7
20 14 20 10 0 10 -4 1 -16z m-418 5 c0 -2 -8 -10 -17 -17 -16 -13 -17 -12 -4
4 13 16 21 21 21 13z m121 -13 c13 -16 12 -17 -3 -4 -17 13 -22 21 -14 21 2 0
10 -8 17 -17z m249 -8 c13 -14 21 -25 18 -25 -2 0 -15 11 -28 25 -13 14 -21
25 -18 25 2 0 15 -11 28 -25z m150 21 c0 -2 -8 -10 -17 -17 -16 -13 -17 -12
-4 4 13 16 21 21 21 13z m-489 -23 c13 -16 12 -17 -3 -4 -17 13 -22 21 -14 21
2 0 10 -8 17 -17z m67 -4 c9 -12 9 -16 -1 -16 -7 0 -14 9 -14 20 -1 11 -1 18
0 16 2 -2 8 -11 15 -20z m161 18 c-2 -2 -11 -8 -20 -15 -12 -9 -16 -9 -16 1 0
7 9 14 20 14 11 1 18 1 16 0z m71 -1 c0 -2 -8 -10 -17 -17 -16 -13 -17 -12 -4
4 13 16 21 21 21 13z m141 -13 c12 -16 12 -17 -2 -6 -9 7 -20 9 -24 5 -5 -4
-5 -1 -1 6 9 16 11 15 27 -5z m-290 -10 c13 -16 12 -17 -3 -4 -17 13 -22 21
-14 21 2 0 10 -8 17 -17z m80 -6 c-6 -8 -9 -17 -6 -20 3 -4 2 -5 -2 -2 -3 3
-11 0 -18 -5 -8 -7 -12 -5 -12 5 0 8 4 12 8 10 3 -3 12 2 19 10 7 8 15 15 17
15 3 0 0 -6 -6 -13z m283 5 c2 -4 -4 -8 -14 -8 -10 0 -16 4 -14 8 3 4 9 8 14
8 5 0 11 -4 14 -8z m76 4 c0 -2 -7 -7 -16 -10 -8 -3 -12 -2 -9 4 6 10 25 14
25 6z m-464 -32 c1 -9 0 -13 -4 -10 -3 4 -7 14 -8 22 -1 9 0 13 4 10 3 -4 7
-14 8 -22z m297 13 c4 3 7 1 7 -5 0 -17 -16 -15 -31 6 -12 15 -12 16 2 5 9 -7
19 -10 22 -6z m-400 -17 c10 -12 9 -12 -3 -3 -8 6 -23 9 -33 8 -9 -2 -15 0
-12 5 7 12 33 6 48 -10z m312 9 c-3 -3 -17 -5 -32 -4 -15 1 -37 -5 -48 -14
-18 -15 -19 -15 -7 0 6 9 10 18 7 20 -2 3 16 5 40 5 24 0 42 -3 40 -7z m-270
-17 c-3 -3 0 -11 6 -19 17 -20 5 -16 -14 5 -15 16 -15 19 -2 19 8 0 13 -3 10
-5z m34 -6 c9 -11 9 -16 -1 -22 -7 -4 -10 -4 -6 1 4 4 3 14 -3 22 -6 7 -9 13
-6 13 2 0 10 -6 16 -14z m413 2 c-9 -9 -7 -15 6 -25 15 -13 14 -13 -6 -3 -19
9 -21 14 -11 26 6 8 14 14 17 14 3 0 1 -5 -6 -12z m48 7 c0 -2 -6 -8 -13 -14
-10 -8 -14 -7 -14 2 0 8 6 14 14 14 7 0 13 -1 13 -2z m35 -5 c3 -6 -1 -7 -9
-4 -18 7 -21 14 -7 14 6 0 13 -4 16 -10z m-605 -42 c0 -4 -5 -8 -12 -8 -6 0
-8 3 -5 7 4 3 -1 16 -10 27 -18 21 -18 21 5 2 12 -11 22 -23 22 -28z m240 39
c0 -2 -8 -11 -18 -20 -15 -14 -19 -15 -19 -2 0 8 4 12 8 9 4 -2 10 0 14 6 6
10 15 14 15 7z m100 0 c0 -2 -10 -12 -22 -23 l-23 -19 19 23 c18 21 26 27 26
19z m256 -19 c4 -7 4 -10 -1 -6 -4 4 -15 2 -24 -5 -14 -11 -14 -10 -2 6 16 20
18 21 27 5z m-473 -23 c-3 -9 -8 -14 -10 -11 -3 3 -2 9 2 15 9 16 15 13 8 -4z
m241 3 c-3 -5 0 -17 8 -26 11 -15 11 -15 -3 -5 -9 7 -18 11 -21 8 -3 -3 -11 3
-19 12 -13 17 -13 17 5 3 18 -13 19 -13 14 1 -4 9 -1 16 8 16 7 0 11 -4 8 -9z
m116 8 c0 -2 -7 -7 -16 -10 -8 -3 -12 -2 -9 4 6 10 25 14 25 6z m52 -21 c3 3
11 -3 19 -12 12 -16 12 -17 -2 -6 -9 7 -18 11 -21 8 -3 -3 -13 5 -24 17 -19
23 -19 23 2 5 11 -9 23 -15 26 -12z m-355 0 c0 -8 -4 -12 -9 -9 -5 3 -6 10 -3
15 9 13 12 11 12 -6z m79 -11 c1 -9 0 -13 -4 -10 -3 4 -7 14 -8 22 -1 9 0 13
4 10 3 -4 7 -14 8 -22z m157 11 c-3 -9 -8 -14 -10 -11 -3 3 -2 9 2 15 9 16 15
13 8 -4z m-259 -11 c3 -8 2 -12 -4 -9 -6 3 -10 10 -10 16 0 14 7 11 14 -7z
m162 4 c4 -7 4 -10 -1 -6 -4 4 -15 2 -24 -5 -14 -11 -14 -10 -2 6 16 20 18 21
27 5z m274 6 c0 -8 -19 -13 -24 -6 -3 5 1 9 9 9 8 0 15 -2 15 -3z m-590 -8 c0
-2 -8 -10 -17 -17 -16 -13 -17 -12 -4 4 13 16 21 21 21 13z m132 -28 c-13 -13
-94 -19 -86 -7 2 4 20 5 39 3 19 -1 37 1 40 7 4 5 9 9 13 9 3 0 0 -6 -6 -12z
m105 6 c-3 -3 -12 -4 -19 -1 -8 3 -5 6 6 6 11 1 17 -2 13 -5z m90 0 c-3 -3
-12 -4 -19 -1 -8 3 -5 6 6 6 11 1 17 -2 13 -5z m103 -9 c0 -2 -6 -5 -13 -8 -8
-3 -14 1 -14 8 0 7 6 11 14 8 7 -3 13 -6 13 -8z m120 0 c0 -1 -6 -7 -13 -13
-10 -8 -13 -6 -13 7 0 11 6 17 13 14 7 -3 13 -6 13 -8z m-610 -30 c0 -5 -5 -3
-10 5 -5 8 -10 20 -10 25 0 6 5 3 10 -5 5 -8 10 -19 10 -25z m263 -2 c-4 -10
-2 -14 4 -10 5 3 10 0 10 -8 0 -10 -4 -12 -12 -5 -6 5 -24 7 -41 4 -21 -3 -25
-2 -14 5 8 5 17 8 21 5 4 -2 12 3 19 11 16 20 21 19 13 -2z m77 7 c0 -5 -4
-10 -10 -10 -5 0 -10 5 -10 10 0 6 5 10 10 10 6 0 10 -4 10 -10z m90 -12 c8 3
12 2 8 -2 -3 -4 -12 -8 -20 -10 -7 -1 -18 -5 -24 -8 -6 -4 -11 -1 -11 7 0 8 5
11 10 8 7 -4 8 1 4 13 -6 17 -6 17 5 3 7 -9 20 -14 28 -11z m70 18 c0 -2 -7
-7 -16 -10 -8 -3 -12 -2 -9 4 6 10 25 14 25 6z m32 -15 c-5 -13 -3 -14 9 -4
13 10 16 10 16 -1 0 -18 -27 -14 -38 6 -5 10 -4 15 5 15 9 0 12 -7 8 -16z
m-404 1 c13 11 14 11 8 0 -4 -7 -2 -20 6 -30 12 -15 11 -16 -4 -4 -9 8 -21 11
-25 9 -5 -3 -9 4 -10 16 0 12 1 16 4 9 4 -10 8 -10 21 0z m459 -24 c-3 -8 -6
-5 -6 6 -1 11 2 17 5 13 3 -3 4 -12 1 -19z m-257 8 c0 -2 -7 -7 -16 -10 -8 -3
-12 -2 -9 4 6 10 25 14 25 6z m-147 -23 c-4 -10 -2 -14 4 -10 5 3 10 0 10 -8
0 -10 -4 -12 -12 -5 -7 5 -15 7 -18 3 -4 -3 -7 -2 -7 3 0 9 20 34 27 34 1 0
-1 -7 -4 -17z m277 1 c-6 -6 -7 -14 -3 -17 3 -4 2 -7 -4 -7 -6 0 -13 8 -15 18
-4 12 1 18 13 18 12 0 15 -4 9 -12z m-210 -19 c0 -2 -6 -5 -13 -8 -8 -3 -14 1
-14 8 0 7 6 11 14 8 7 -3 13 -6 13 -8z m47 0 c0 -8 -6 -16 -13 -19 -7 -3 -10
2 -7 15 6 22 20 26 20 4z m80 8 c-4 -3 -3 -11 3 -17 6 -8 3 -12 -9 -12 -12 0
-17 6 -13 18 2 10 9 18 15 18 6 0 7 -3 4 -7z m157 -2 c-9 -9 -34 -9 -34 -1 0
5 9 8 20 7 10 -1 17 -3 14 -6z m-519 -20 c-9 -8 -36 -10 -30 -2 2 4 11 8 20 8
8 0 13 -3 10 -6z m481 -15 c2 -16 -24 -17 -30 0 -3 9 1 11 11 7 12 -5 14 -3 8
8 -5 8 -4 11 0 6 5 -4 10 -13 11 -21z m-401 5 c3 -5 2 -12 -3 -15 -5 -3 -9 1
-9 9 0 17 3 19 12 6z m166 -8 c13 -16 12 -17 -3 -4 -10 7 -18 15 -18 17 0 8 8
3 21 -13z m44 -3 c-3 -5 -12 -10 -18 -10 -7 0 -6 4 3 10 19 12 23 12 15 0z
m45 0 c8 -5 11 -10 5 -10 -5 0 -17 5 -25 10 -8 5 -10 10 -5 10 6 0 17 -5 25
-10z m73 -7 c-3 -7 -9 -10 -14 -7 -14 8 -11 21 5 21 8 0 12 -6 9 -14z m-407
-15 c3 -4 -1 -5 -10 -4 -8 1 -18 5 -22 8 -3 4 1 5 10 4 8 -1 18 -5 22 -8z
m337 -13 c-3 -9 -8 -14 -10 -11 -3 3 -2 9 2 15 9 16 15 13 8 -4z m45 -10 c-3
-3 -9 2 -12 12 -6 14 -5 15 5 6 7 -7 10 -15 7 -18z m103 8 c13 -16 12 -17 -3
-4 -10 7 -18 15 -18 17 0 8 8 3 21 -13z m-461 -23 c0 -5 -5 -10 -11 -10 -5 0
-7 5 -4 10 3 6 8 10 11 10 2 0 4 -4 4 -10z m80 0 c0 -5 -5 -10 -11 -10 -5 0
-7 5 -4 10 3 6 8 10 11 10 2 0 4 -4 4 -10z m379 -13 c8 -10 7 -14 -2 -14 -8 0
-14 6 -14 14 0 7 1 13 2 13 2 0 8 -6 14 -13z m-515 -9 c-3 -4 -9 -8 -15 -8 -5
0 -9 4 -9 8 0 5 7 9 15 9 8 0 12 -4 9 -9z m-7 -43 c0 -8 -4 -12 -9 -9 -5 3 -6
10 -3 15 9 13 12 11 12 -6z m-77 -11 c0 -8 -19 -13 -24 -6 -3 5 1 9 9 9 8 0
15 -2 15 -3z m340 -4 c0 -5 -5 -10 -11 -10 -5 0 -7 5 -4 10 3 6 8 10 11 10 2
0 4 -4 4 -10z m-210 -14 c0 -2 -8 -10 -17 -17 -16 -13 -17 -12 -4 4 13 16 21
21 21 13z m-155 -26 c3 -5 1 -10 -4 -10 -6 0 -11 5 -11 10 0 6 2 10 4 10 3 0
8 -4 11 -10z m386 -17 c13 -16 12 -17 -3 -4 -10 7 -18 15 -18 17 0 8 8 3 21
-13z m174 -3 c-3 -5 -14 -10 -23 -9 -14 0 -13 2 3 9 27 11 27 11 20 0z m-555
-14 c0 -3 -4 -8 -10 -11 -5 -3 -10 -1 -10 4 0 6 5 11 10 11 6 0 10 -2 10 -4z
m94 -24 c3 -5 -1 -9 -9 -9 -8 0 -12 4 -9 9 3 4 7 8 9 8 2 0 6 -4 9 -8z m7 -39
c13 -16 12 -17 -3 -4 -10 7 -18 15 -18 17 0 8 8 3 21 -13z m-70 -16 c-10 -9
-11 -8 -5 6 3 10 9 15 12 12 3 -3 0 -11 -7 -18z m203 7 c3 -8 2 -12 -4 -9 -6
3 -10 10 -10 16 0 14 7 11 14 -7z m37 -7 c-10 -9 -11 -8 -5 6 3 10 9 15 12 12
3 -3 0 -11 -7 -18z m173 15 c3 -5 -1 -9 -9 -9 -8 0 -12 4 -9 9 3 4 7 8 9 8 2
0 6 -4 9 -8z m-524 -22 c0 -5 -5 -10 -11 -10 -5 0 -7 5 -4 10 3 6 8 10 11 10
2 0 4 -4 4 -10z m525 -19 c-9 -8 -36 -10 -30 -2 2 4 11 8 20 8 8 0 13 -3 10
-6z m-500 -21 c3 -6 -1 -7 -9 -4 -18 7 -21 14 -7 14 6 0 13 -4 16 -10z m433
-25 c-3 -3 -9 2 -12 12 -6 14 -5 15 5 6 7 -7 10 -15 7 -18z m-473 6 c-9 -8
-36 -10 -30 -2 2 4 11 8 20 8 8 0 13 -3 10 -6z m70 -29 c-3 -3 -11 0 -18 7 -9
10 -8 11 6 5 10 -3 15 -9 12 -12z m285 6 c0 -4 -4 -8 -9 -8 -6 0 -12 4 -15 8
-3 5 1 9 9 9 8 0 15 -4 15 -9z m-413 -12 c-3 -8 -1 -17 6 -19 7 -3 0 -4 -16
-3 -15 2 -30 6 -35 11 -4 4 -1 5 6 1 6 -4 12 -2 12 4 0 6 5 8 10 5 6 -3 10 -1
10 4 0 6 3 11 6 11 3 0 4 -6 1 -14z m51 -11 c-3 -3 -9 2 -12 12 -6 14 -5 15 5
6 7 -7 10 -15 7 -18z m13 -14 c24 12 24 8 0 -12 -17 -15 -19 -14 -35 15 -15
28 -15 29 0 9 13 -18 20 -20 35 -12z m379 19 c0 -5 -5 -10 -11 -10 -5 0 -7 5
-4 10 3 6 8 10 11 10 2 0 4 -4 4 -10z m-342 -25 c-6 -14 -17 -25 -24 -25 -8 0
-4 10 9 25 28 31 29 31 15 0z m92 -42 c0 -3 -9 2 -20 12 -11 10 -20 13 -20 7
0 -6 5 -14 10 -17 6 -4 8 -10 5 -15 -3 -5 -1 -11 5 -15 5 -3 10 -12 10 -18 0
-7 -5 -4 -11 6 -10 18 -12 18 -35 -4 -13 -12 -24 -18 -24 -13 0 5 11 18 25 28
23 17 23 19 8 42 -8 13 -20 21 -26 17 -6 -3 -7 -1 -3 6 6 9 11 9 24 -1 14 -11
15 -10 8 6 -5 15 0 13 19 -8 14 -15 25 -30 25 -33z m274 33 c-6 -16 -31 -17
-31 0 0 7 7 10 15 6 11 -4 13 -1 7 8 -5 8 -4 11 3 6 6 -4 9 -12 6 -20z m-534
-1 c0 -8 -4 -15 -10 -15 -5 0 -7 7 -4 15 4 8 8 15 10 15 2 0 4 -7 4 -15z m64
0 c16 0 31 -6 33 -12 3 -7 0 -13 -7 -13 -6 0 -8 5 -5 10 3 6 2 10 -2 10 -12 0
-43 -37 -44 -53 0 -9 -2 -9 -6 1 -3 7 3 23 13 34 17 19 17 21 2 15 -9 -3 -22
1 -30 11 -11 13 -11 14 2 7 8 -5 28 -10 44 -10z m216 -5 c0 -5 -2 -10 -4 -10
-3 0 -8 5 -11 10 -3 6 -1 10 4 10 6 0 11 -4 11 -10z m28 -10 c-7 -11 -16 -20
-21 -20 -4 0 -6 -4 -3 -8 2 -4 -3 -8 -13 -9 -15 -1 -14 3 8 27 31 33 46 38 29
10z m18 -19 c-9 -10 -13 -21 -9 -24 3 -4 1 -7 -6 -7 -7 0 -11 3 -9 8 25 51 33
62 36 53 2 -7 -3 -20 -12 -30z m74 27 c0 -4 -11 -7 -24 -6 -14 1 -23 5 -21 8
5 9 45 7 45 -2z m57 -16 c-10 -10 -14 -22 -10 -27 5 -4 3 -5 -3 -2 -7 4 -15 0
-18 -9 -5 -13 -9 -14 -21 -4 -8 7 -15 20 -14 29 0 11 3 9 9 -6 5 -13 12 -23
16 -23 3 0 3 7 0 16 -3 8 -2 13 2 10 5 -3 16 4 25 15 9 10 20 19 23 19 4 0 0
-8 -9 -18z m-445 -9 c-10 -4 -10 -8 -1 -19 8 -10 8 -14 0 -14 -6 0 -11 5 -11
10 0 6 -4 10 -10 10 -6 0 -5 -10 2 -25 14 -32 -7 -58 -49 -61 -16 -1 -37 -5
-48 -8 -16 -5 -15 -4 2 5 21 11 21 13 6 24 -13 9 -13 14 -3 20 8 5 11 4 7 -2
-4 -6 5 -15 19 -22 29 -13 64 0 64 25 0 14 -2 14 -16 0 -21 -22 -41 -20 -55 5
-8 16 -8 20 0 14 7 -4 18 -1 26 5 8 7 15 9 15 5 0 -4 -8 -14 -17 -21 -16 -12
-16 -13 -2 -14 33 0 49 43 24 63 -5 5 0 6 12 2 12 -3 24 -1 28 5 4 6 10 8 14
4 3 -4 0 -9 -7 -11z m185 11 c-3 -3 -12 -4 -19 -1 -8 3 -5 6 6 6 11 1 17 -2
13 -5z m288 -13 c-3 -6 -11 -11 -16 -11 -5 0 -4 6 3 14 14 16 24 13 13 -3z
m-355 -6 c-14 -17 -30 -20 -30 -4 0 5 5 7 10 4 6 -3 10 -1 10 4 0 6 5 11 11
11 8 0 8 -5 -1 -15z m20 -10 c-17 -21 -5 -31 14 -12 8 8 13 16 11 19 -2 2 5 4
15 5 17 2 15 -2 -9 -23 -17 -14 -36 -22 -45 -18 -20 8 -21 -3 -1 -23 8 -8 13
-19 10 -24 -10 -15 12 -10 29 7 9 8 16 12 16 7 0 -4 5 -1 10 7 5 8 10 10 10 3
0 -14 -70 -56 -71 -43 -1 6 -2 15 -3 20 0 6 -14 21 -31 35 -16 13 -25 24 -18
25 6 0 13 -5 15 -11 2 -7 15 2 28 18 14 17 27 29 29 27 2 -2 -2 -10 -9 -19z
m-60 5 c0 -5 -4 -10 -10 -10 -5 0 -10 5 -10 10 0 6 5 10 10 10 6 0 10 -4 10
-10z m-25 -20 c3 -5 1 -10 -4 -10 -6 0 -11 5 -11 10 0 6 2 10 4 10 3 0 8 -4
11 -10z m229 -9 c10 -15 -5 -40 -20 -34 -8 3 -14 9 -14 14 0 4 7 6 15 3 8 -4
15 -1 15 4 0 6 -8 13 -17 15 -16 4 -16 5 -1 6 9 0 19 -3 22 -8z m-254 -11 c0
-5 -7 -7 -15 -4 -8 4 -15 8 -15 10 0 2 7 4 15 4 8 0 15 -4 15 -10z m-156 -26
c3 -8 2 -13 -3 -10 -5 3 -11 -1 -15 -9 -6 -17 -26 -20 -26 -4 0 5 4 8 9 4 5
-3 12 4 16 15 8 24 11 25 19 4z m286 6 c0 -5 -2 -10 -4 -10 -3 0 -8 5 -11 10
-3 6 -1 10 4 10 6 0 11 -4 11 -10z m147 -10 c-1 -20 -9 -24 -36 -21 -7 2 -10
-2 -6 -9 6 -9 2 -9 -14 -1 -25 14 -28 23 -4 14 11 -5 14 -3 8 6 -6 10 -3 11
13 2 16 -9 21 -7 25 9 7 26 16 26 14 0z m-1601 -31 c3 -6 -5 -3 -20 6 -14 10
-26 19 -26 22 0 7 39 -17 46 -28z m174 -79 c0 -5 -2 -10 -4 -10 -3 0 -8 5 -11
10 -3 6 -1 10 4 10 6 0 11 -4 11 -10z m85 -31 c11 -17 -1 -21 -15 -4 -8 9 -8
15 -2 15 6 0 14 -5 17 -11z m985 -3 c0 -3 -4 -8 -10 -11 -5 -3 -10 -1 -10 4 0
6 5 11 10 11 6 0 10 -2 10 -4z m-309 -36 c6 0 7 5 4 10 -3 6 -1 10 4 10 13 0
13 -3 5 -24 -5 -13 -9 -14 -20 -5 -8 6 -14 17 -13 23 0 7 2 6 6 -1 2 -7 9 -13
14 -13z m254 10 c-3 -5 -11 -10 -16 -10 -6 0 -7 5 -4 10 3 6 11 10 16 10 6 0
7 -4 4 -10z"/>
<path d="M3430 315 c0 -5 9 -19 21 -31 l21 -22 -21 -7 c-12 -3 -21 -11 -21
-16 0 -6 13 -1 29 10 15 11 31 18 35 16 10 -7 -6 8 -36 34 -16 14 -28 21 -28
16z"/>
<path d="M3150 262 c0 -4 -9 -13 -21 -20 -12 -8 -18 -9 -14 -3 3 6 2 11 -4 11
-17 0 -21 -17 -7 -29 10 -8 16 -8 25 3 13 16 41 11 41 -6 0 -6 -6 -6 -14 2
-12 9 -15 8 -13 -9 1 -15 6 -20 17 -15 8 4 23 6 33 6 15 -1 16 1 2 14 -8 9
-12 21 -8 27 4 6 0 8 -10 4 -11 -4 -14 -2 -10 9 3 7 0 14 -6 14 -6 0 -11 -3
-11 -8z"/>
<path d="M3100 195 c8 -10 6 -15 -10 -20 -11 -3 -18 -11 -14 -16 4 -6 13 -4
24 6 10 9 23 14 29 11 5 -4 9 2 8 13 -1 12 -9 19 -24 19 -18 0 -21 -3 -13 -13z"/>
<path d="M2934 189 c-3 -6 -12 -8 -19 -5 -9 3 -13 -2 -12 -15 1 -11 9 -19 19
-19 10 0 17 3 17 8 -5 27 2 32 24 21 12 -6 23 -13 25 -14 2 -2 -8 -14 -21 -27
-21 -21 -26 -23 -34 -9 -9 14 -14 12 -37 -12 -23 -25 -24 -28 -6 -22 12 4 20
2 20 -6 0 -9 3 -9 15 1 8 6 20 8 27 4 7 -4 10 -4 6 1 -4 4 -3 14 3 22 12 14
34 18 25 5 -3 -5 1 -9 8 -9 8 0 11 10 9 26 -2 14 -4 33 -4 41 -1 17 -55 25
-65 9z m-9 -68 c3 -5 2 -12 -3 -15 -5 -3 -9 1 -9 9 0 17 3 19 12 6z"/>
<path d="M2943 149 c-2 -17 1 -18 13 -9 17 15 18 30 1 30 -7 0 -13 -9 -14 -21z"/>
<path d="M3170 164 c0 -3 7 -12 15 -20 9 -9 15 -11 15 -4 0 6 4 9 9 6 5 -3 11
1 15 9 7 18 -5 20 -22 3 -9 -9 -12 -9 -12 0 0 7 -4 12 -10 12 -5 0 -10 -3 -10
-6z"/>
<path d="M2791 131 c-9 -6 -6 -14 15 -30 14 -11 22 -21 17 -21 -5 0 -10 -7
-10 -15 0 -26 21 -10 22 16 1 14 5 32 10 40 4 8 5 11 0 7 -4 -4 -15 -3 -24 2
-10 5 -23 5 -30 1z"/>
<path d="M2113 78 c2 -7 10 -12 17 -10 7 1 17 -1 24 -5 7 -4 3 0 -7 10 -22 20
-41 23 -34 5z"/>
<path d="M2227 56 c-4 -9 -1 -18 5 -22 7 -4 8 -3 4 4 -4 7 -3 12 3 12 5 0 12
-6 14 -12 4 -8 6 -9 6 -2 1 6 -5 17 -13 23 -10 9 -15 8 -19 -3z"/>
<path d="M2840 45 c-7 -9 -8 -15 -2 -15 5 0 12 7 16 15 3 8 4 15 2 15 -2 0 -9
-7 -16 -15z"/>
<path d="M2866 44 c-5 -14 -4 -15 8 -5 8 7 21 9 27 5 8 -4 9 -3 5 4 -10 17
-33 15 -40 -4z"/>
<path d="M2786 31 c-4 -5 3 -7 14 -4 23 6 26 13 6 13 -8 0 -17 -4 -20 -9z"/>
</g>
</svg>
